<?xml version="1.0"?>
<svg xmlns="http://www.w3.org/2000/svg" viewBox="0 0 1536 40">
  <rect x="0" y="0" width="24" height="40" fill="#eee" stroke="#999"></rect>
  <rect x="24" y="0" width="24" height="40" fill="#eee" stroke="#999"></rect>
  <rect x="48" y="0" width="24" height="40" fill="#eee" stroke="#999"></rect>
  <rect x="72" y="0" width="24" height="40" fill="#eee" stroke="#999"></rect>
  <rect x="96" y="0" width="24" height="40" fill="#ddd" stroke="#999"></rect>
  <rect x="120" y="0" width="24" height="40" fill="#ddd" stroke="#999"></rect>
  <rect x="144" y="0" width="24" height="40" fill="#ddd" stroke="#999"></rect>
  <rect x="168" y="0" width="24" height="40" fill="#ddd" stroke="#999"></rect>
  <rect x="192" y="0" width="24" height="40" fill="#eee" stroke="#999"></rect>
  <rect x="216" y="0" width="24" height="40" fill="#eee" stroke="#999"></rect>
  <rect x="240" y="0" width="24" height="40" fill="#eee" stroke="#999"></rect>
  <rect x="264" y="0" width="24" height="40" fill="#eee" stroke="#999"></rect>
  <rect x="288" y="0" width="24" height="40" fill="#ddd" stroke="#999"></rect>
  <rect x="312" y="0" width="24" height="40" fill="#ddd" stroke="#999"></rect>
  <rect x="336" y="0" width="24" height="40" fill="#ddd" stroke="#999"></rect>
  <rect x="360" y="0" width="24" height="40" fill="#ddd" stroke="#999"></rect>
  <rect x="384" y="0" width="24" height="40" fill="#eee" stroke="#999"></rect>
  <rect x="408" y="0" width="24" height="40" fill="#eee" stroke="#999"></rect>
  <rect x="432" y="0" width="24" height="40" fill="#eee" stroke="#999"></rect>
  <rect x="456" y="0" width="24" height="40" fill="#eee" stroke="#999"></rect>
  <rect x="480" y="0" width="24" height="40" fill="#ddd" stroke="#999"></rect>
  <rect x="504" y="0" width="24" height="40" fill="#ddd" stroke="#999"></rect>
  <rect x="528" y="0" width="24" height="40" fill="#ddd" stroke="#999"></rect>
  <rect x="552" y="0" width="24" height="40" fill="#ddd" stroke="#999"></rect>
  <rect x="576" y="0" width="24" height="40" fill="#eee" stroke="#999"></rect>
  <rect x="600" y="0" width="24" height="40" fill="#eee" stroke="#999"></rect>
  <rect x="624" y="0" width="24" height="40" fill="#eee" stroke="#999"></rect>
  <rect x="648" y="0" width="24" height="40" fill="#eee" stroke="#999"></rect>
  <rect x="672" y="0" width="24" height="40" fill="#ddd" stroke="#999"></rect>
  <rect x="696" y="0" width="24" height="40" fill="#ddd" stroke="#999"></rect>
  <rect x="720" y="0" width="24" height="40" fill="#ddd" stroke="#999"></rect>
  <rect x="744" y="0" width="24" height="40" fill="#ddd" stroke="#999"></rect>
  <rect x="768" y="0" width="24" height="40" fill="#eee" stroke="#999"></rect>
  <rect x="792" y="0" width="24" height="40" fill="#eee" stroke="#999"></rect>
  <rect x="816" y="0" width="24" height="40" fill="#eee" stroke="#999"></rect>
  <rect x="840" y="0" width="24" height="40" fill="#eee" stroke="#999"></rect>
  <rect x="864" y="0" width="24" height="40" fill="#ddd" stroke="#999"></rect>
  <rect x="888" y="0" width="24" height="40" fill="#ddd" stroke="#999"></rect>
  <rect x="912" y="0" width="24" height="40" fill="#ddd" stroke="#999"></rect>
  <rect x="936" y="0" width="24" height="40" fill="#ddd" stroke="#999"></rect>
  <rect x="960" y="0" width="24" height="40" fill="#eee" stroke="#999"></rect>
  <rect x="984" y="0" width="24" height="40" fill="#eee" stroke="#999"></rect>
  <rect x="1008" y="0" width="24" height="40" fill="#eee" stroke="#999"></rect>
  <rect x="1032" y="0" width="24" height="40" fill="#eee" stroke="#999"></rect>
  <rect x="1056" y="0" width="24" height="40" fill="#ddd" stroke="#999"></rect>
  <rect x="1080" y="0" width="24" height="40" fill="#ddd" stroke="#999"></rect>
  <rect x="1104" y="0" width="24" height="40" fill="#ddd" stroke="#999"></rect>
  <rect x="1128" y="0" width="24" height="40" fill="#ddd" stroke="#999"></rect>
  <rect x="1152" y="0" width="24" height="40" fill="#eee" stroke="#999"></rect>
  <rect x="1176" y="0" width="24" height="40" fill="#eee" stroke="#999"></rect>
  <rect x="1200" y="0" width="24" height="40" fill="#eee" stroke="#999"></rect>
  <rect x="1224" y="0" width="24" height="40" fill="#eee" stroke="#999"></rect>
  <rect x="1248" y="0" width="24" height="40" fill="#ddd" stroke="#999"></rect>
  <rect x="1272" y="0" width="24" height="40" fill="#ddd" stroke="#999"></rect>
  <rect x="1296" y="0" width="24" height="40" fill="#ddd" stroke="#999"></rect>
  <rect x="1320" y="0" width="24" height="40" fill="#ddd" stroke="#999"></rect>
  <rect x="1344" y="0" width="24" height="40" fill="#eee" stroke="#999"></rect>
  <rect x="1368" y="0" width="24" height="40" fill="#eee" stroke="#999"></rect>
  <rect x="1392" y="0" width="24" height="40" fill="#eee" stroke="#999"></rect>
  <rect x="1416" y="0" width="24" height="40" fill="#eee" stroke="#999"></rect>
  <rect x="1440" y="0" width="24" height="40" fill="#ddd" stroke="#999"></rect>
  <rect x="1464" y="0" width="24" height="40" fill="#ddd" stroke="#999"></rect>
  <rect x="1488" y="0" width="24" height="40" fill="#ddd" stroke="#999"></rect>
  <rect x="1512" y="0" width="24" height="40" fill="#ddd" stroke="#999"></rect>
</svg>
